<?xml version="1.0" standalone="no"?>
<!DOCTYPE svg PUBLIC "-//W3C//DTD SVG 20010904//EN"
        "http://www.w3.org/TR/2001/REC-SVG-20010904/DTD/svg10.dtd">
<svg version="1.0" xmlns="http://www.w3.org/2000/svg"
     width="535.000000pt" height="563.000000pt" viewBox="0 0 535.000000 563.000000"
     preserveAspectRatio="xMidYMid meet">

    <g transform="translate(0.000000,563.000000) scale(0.100000,-0.100000)"
       fill="#ffffff" stroke="none">
        <path d="M2319 5576 c-24 -19 -161 -137 -304 -263 -247 -217 -260 -230 -260
-263 0 -35 2 -36 295 -232 278 -187 297 -198 341 -198 l47 0 296 265 c163 146
300 274 305 284 23 42 3 58 -300 251 -340 216 -341 217 -420 156z"/>
        <path d="M3173 5087 c-25 -9 -429 -363 -600 -526 -15 -14 -23 -34 -23 -56 0
-32 7 -38 302 -244 279 -196 304 -211 345 -211 49 0 10 -32 431 359 235 218
243 227 240 260 -3 34 -10 39 -308 227 -168 105 -316 194 -330 197 -14 3 -40
0 -57 -6z"/>
        <path d="M1498 4843 c-189 -157 -579 -509 -584 -528 -3 -13 -2 -31 3 -39 5 -9
136 -111 292 -226 295 -218 311 -227 364 -198 22 12 497 445 575 523 48 50 53
81 20 112 -13 12 -142 102 -288 202 -239 164 -269 181 -307 181 -31 0 -50 -7
-75 -27z"/>
        <path d="M2099 4134 c-409 -362 -409 -361 -409 -399 0 -32 10 -40 262 -219
l262 -186 18 35 c31 59 111 100 473 240 l170 66 88 87 c48 48 90 95 93 105 3
10 -1 28 -9 40 -8 12 -152 115 -320 230 -284 193 -308 207 -350 207 -44 0 -49
-4 -278 -206z"/>
        <path d="M4321 4185 c-117 -47 -219 -90 -227 -96 -35 -29 -14 -46 310 -258
178 -116 338 -216 355 -222 18 -6 47 -9 64 -6 47 8 460 193 472 211 7 11 7 21
0 32 -6 9 -154 108 -330 220 -393 251 -335 240 -644 119z"/>
        <path d="M728 4142 c-14 -6 -549 -469 -646 -560 -23 -21 -32 -39 -32 -61 0
-34 -16 -20 428 -348 222 -163 167 -181 554 177 172 160 317 302 322 315 6 16
6 34 0 50 -5 15 -111 102 -281 230 -276 208 -293 218 -345 197z"/>
        <path d="M3586 3912 c-148 -59 -274 -114 -279 -123 -6 -9 -8 -23 -4 -31 3 -9
160 -119 348 -247 338 -228 343 -231 393 -230 43 0 94 20 311 117 239 108 260
119 263 144 3 24 -22 43 -324 252 l-326 226 -57 -1 c-47 0 -98 -17 -325 -107z"/>
        <path d="M2775 3605 c-383 -158 -365 -149 -365 -179 0 -20 45 -54 308 -227
406 -268 407 -269 456 -269 30 0 123 36 350 133 169 73 312 140 317 149 5 9 6
23 3 31 -6 17 -632 463 -670 477 -54 21 -100 8 -399 -115z"/>
        <path d="M5076 3560 c-120 -49 -229 -96 -241 -104 -13 -8 -32 -30 -42 -48 -26
-43 -207 -673 -199 -693 3 -8 14 -15 25 -15 34 0 464 191 494 219 16 14 33 34
38 44 20 37 189 633 187 657 -2 16 -10 26 -23 27 -11 2 -119 -38 -239 -87z"/>
        <path d="M1449 3542 c-52 -35 -629 -565 -634 -583 -15 -46 -17 -44 398 -372
261 -206 226 -206 440 -5 438 410 487 459 487 486 0 15 -4 32 -8 39 -4 6 -138
111 -297 232 -251 192 -294 221 -325 221 -19 0 -47 -8 -61 -18z"/>
        <path d="M20 3344 c0 -9 62 -143 139 -298 106 -215 147 -290 177 -318 52 -49
484 -358 501 -358 7 0 13 6 13 14 0 22 -199 468 -227 509 -22 31 -561 454
-593 465 -6 2 -10 -4 -10 -14z"/>
        <path d="M4341 3229 c-240 -97 -280 -119 -306 -169 -26 -51 -235 -728 -229
-744 3 -9 12 -16 20 -16 20 0 521 227 556 251 15 11 37 37 47 57 23 47 221
673 221 701 0 37 -55 23 -309 -80z"/>
        <path d="M2296 3284 c-9 -8 -16 -16 -16 -18 0 -1 -38 -172 -85 -380 -47 -208
-85 -390 -85 -405 0 -14 8 -39 18 -56 23 -37 656 -487 693 -493 14 -2 30 3 38
11 14 17 191 745 191 786 0 54 -38 88 -336 303 -419 302 -388 283 -418 252z"/>
        <path d="M3547 2935 c-164 -68 -308 -132 -319 -142 -11 -10 -26 -30 -34 -45
-21 -40 -206 -768 -200 -784 3 -8 16 -14 29 -14 39 0 587 257 624 293 18 17
39 49 48 71 30 84 205 697 205 721 0 21 -5 25 -27 25 -16 -1 -162 -57 -326
-125z"/>
        <path d="M780 2737 c0 -23 186 -436 217 -481 18 -25 128 -115 306 -248 153
-115 284 -212 292 -215 10 -3 15 2 15 15 0 27 -162 413 -192 458 -23 36 -587
473 -620 482 -12 3 -18 -1 -18 -11z"/>
        <path d="M4775 2648 c-221 -100 -255 -121 -281 -170 -21 -41 -206 -700 -200
-715 3 -7 14 -13 25 -13 31 0 452 207 484 238 16 15 35 39 42 53 20 37 205
658 205 686 0 39 -41 28 -275 -79z"/>
        <path d="M346 2652 c-8 -13 177 -403 218 -460 21 -30 105 -96 273 -217 224
-162 273 -191 273 -166 0 14 -167 378 -194 426 -14 22 -37 52 -53 67 -29 27
-479 347 -499 355 -7 2 -15 0 -18 -5z"/>
        <path d="M4018 2252 c-244 -115 -296 -148 -317 -201 -16 -39 -171 -647 -171
-670 0 -34 29 -31 108 10 378 199 455 244 480 281 25 39 202 628 202 675 0 19
-5 23 -27 22 -16 0 -139 -53 -275 -117z"/>
        <path d="M2051 2246 c-7 -8 -51 -176 -98 -373 l-85 -357 19 -44 c16 -38 53
-70 333 -282 173 -132 323 -240 332 -240 10 0 24 10 32 23 8 12 56 186 106
387 94 376 98 402 62 446 -28 36 -644 454 -668 454 -12 0 -27 -6 -33 -14z"/>
        <path d="M1075 2081 c16 -53 178 -400 202 -435 21 -29 302 -259 500 -408 8 -6
15 6 23 44 11 50 10 60 -24 167 -20 63 -47 134 -61 157 -20 34 -90 93 -318
265 -160 122 -300 224 -310 227 -16 4 -18 1 -12 -17z"/>
        <path d="M635 2060 c-7 -11 144 -334 184 -393 26 -38 485 -385 522 -394 12 -4
19 0 19 10 0 16 -110 284 -136 332 -30 54 -66 85 -299 254 -283 206 -281 205
-290 191z"/>
        <path d="M3215 1878 c-289 -139 -325 -160 -350 -209 -20 -39 -187 -699 -181
-715 3 -8 12 -17 19 -20 7 -2 148 59 313 136 228 108 307 150 335 178 34 36
38 49 123 389 49 194 86 359 82 368 -3 8 -16 15 -28 14 -13 0 -153 -64 -313
-141z"/>
        <path d="M4485 1710 c-180 -96 -248 -137 -275 -167 -31 -36 -44 -71 -123 -342
-49 -166 -86 -309 -83 -317 3 -8 10 -14 17 -14 15 0 498 287 527 314 13 11 32
33 43 47 22 32 192 578 185 596 -11 26 -57 8 -291 -117z"/>
        <path d="M1346 1491 c-11 -18 103 -286 141 -330 34 -40 211 -178 234 -184 7
-1 20 39 34 101 l21 102 -20 19 c-38 33 -378 292 -391 297 -7 3 -16 1 -19 -5z"/>
        <path d="M3783 1336 c-252 -132 -302 -165 -322 -215 -23 -57 -181 -646 -177
-658 3 -7 13 -13 23 -12 10 0 139 73 288 162 207 125 276 171 300 203 25 32
47 96 113 327 45 158 82 296 82 307 0 38 -52 19 -307 -114z"/>
        <path d="M1842 1281 c-19 -12 -174 -678 -167 -718 3 -18 16 -44 28 -58 12 -14
150 -126 307 -250 299 -236 329 -253 350 -203 19 45 170 660 170 691 0 18 -8
45 -18 60 -23 37 -611 487 -637 487 -11 0 -26 -4 -33 -9z"/>
        <path d="M2975 914 c-279 -134 -324 -162 -344 -213 -22 -54 -172 -664 -167
-677 3 -8 14 -14 24 -14 24 0 567 312 603 347 39 36 52 72 129 366 71 265 79
320 50 324 -8 1 -141 -58 -295 -133z"/>
    </g>
</svg>
